#!OML:ASF I:\Actors\actors\Patient Classification 1\Patient 1\Session 1\Subject1.ASF
:FULLY-SPECIFIED
:DEGREES
249
root 0.808929 17.527 8.62609 8.20752 0.566745 -9.34444
lowerback -2.28567 0.951645 7.20868
upperback -5.75393 1.40613 2.36565
thorax -4.59681 0.445894 -1.59497
lowerneck -6.86282 -3.624 -0.198439
upperneck 44.4735 -7.11105 3.09688
head 17.8356 -2.56267 0.33394
rclavicle 1.00635e-015 2.38542e-014
rhumerus 11.2495 68.8462 -82.2474
rradius 141.897
rwrist -11.7431
rhand -36.8625 -73.0194
rfingers 7.12502
rthumb -9.94197 102.765
lclavicle 1.00635e-015 2.38542e-014
lhumerus 2.56572 -68.9093 88.6507
lradius 136.512
lwrist 19.4921
lhand -58.9054 -39.8205
lfingers 7.12502
lthumb -31.1092 -12.4399
rfemur -2.86726 25.2681 26.7052
rtibia 3.02331
rfoot -12.5331 -24.0587
rtoes 2.36893
lfemur 4.91963 -43.2458 -9.94914
ltibia -4.2936
lfoot -18.5253 49.3434
ltoes 6.30303
250
root 0.809926 17.5269 8.62846 8.20638 0.580363 -9.32651
lowerback -2.31954 0.905231 7.15762
upperback -5.75596 1.34316 2.43554
thorax -4.58692 0.418777 -1.49274
lowerneck -6.89756 -3.57728 -0.386037
upperneck 44.6636 -7.06379 3.22112
head 17.9799 -2.55342 0.433414
rclavicle 4.47266e-015 -1.0138e-014
rhumerus 13.3198 69.6071 -79.9334
rradius 142.05
rwrist -12.3171
rhand -38.0718 -74.3138
rfingers 7.12502
rthumb -11.1085 104
lclavicle 4.47266e-015 -1.0138e-014
lhumerus 2.00382 -70.2381 88.9404
lradius 135.984
lwrist 21.788
lhand -58.3513 -55.7865
lfingers 7.12502
lthumb -30.581 -28.306
rfemur -2.87809 25.2551 26.6776
rtibia 3.04535
rfoot -12.5855 -24.0434
rtoes 2.70682
lfemur 4.8648 -43.0714 -9.91949
ltibia -4.31813
lfoot -18.0258 49.2624
ltoes 5.65241
251
root 0.810156 17.5262 8.63029 8.21468 0.64228 -9.30379
lowerback -2.38674 0.864671 7.1051
upperback -5.75142 1.28372 2.48614
thorax -4.55015 0.393957 -1.40935
lowerneck -6.92369 -3.57851 -0.580309
upperneck 44.88 -7.10001 3.36215
head 18.1451 -2.57714 0.529452
rclavicle -8.98258e-015 3.22031e-014
rhumerus 10.9669 69.2583 -82.3923
rradius 142.021
rwrist -12.0386
rhand -37.2731 -73.453
rfingers 7.12502
rthumb -10.3381 103.179
lclavicle -8.98258e-015 3.22031e-014
lhumerus 1.45051 -68.9622 89.635
lradius 136.806
lwrist 19.3156
lhand -59.3843 -36.5011
lfingers 7.12502
lthumb -31.5655 -9.20893
rfemur -2.89153 25.2693 26.6547
rtibia 3.06765
rfoot -12.6377 -24.1218
rtoes 2.79889
lfemur 4.75911 -42.9272 -9.85188
ltibia -4.32325
lfoot -17.7318 49.124
ltoes 5.28554
252
root 0.80968 17.5244 8.63308 8.20199 0.717244 -9.33502
lowerback -2.49572 0.926887 7.20444
upperback -5.69608 1.35049 2.41373
thorax -4.42192 0.426186 -1.53862
lowerneck -6.88781 -3.67534 -0.475529
upperneck 44.9931 -7.32458 3.44859
head 18.2194 -2.63651 0.516325
rclavicle -1.13307e-014 -3.95581e-014
rhumerus 10.4117 69.0151 -82.8466
rradius 142.012
rwrist -12.0671
rhand -37.2813 -73.5151
rfingers 7.12502
rthumb -10.346 103.241
lclavicle -1.13307e-014 -3.95581e-014
lhumerus 0.914362 -69.9918 90.0206
lradius 136.014
lwrist 20.9878
lhand -58.5421 -52.9333
lfingers 7.12502
lthumb -30.7629 -25.4869
rfemur -2.87301 25.2747 26.7154
rtibia 3.10167
rfoot -12.656 -24.2102
rtoes 2.45928
lfemur 4.69143 -42.7932 -9.7461
ltibia -4.31073
lfoot -17.4845 48.9668
ltoes 4.95854
253
root 0.809674 17.5216 8.63767 8.18488 0.756994 -9.38507
lowerback -2.66309 0.997854 7.35402
upperback -5.59746 1.41993 2.33665
thorax -4.21373 0.461132 -1.69908
lowerneck -6.80594 -3.73869 -0.309933
upperneck 45.0977 -7.48549 3.48319
head 18.2663 -2.66735 0.479605
rclavicle 1.3741e-014 2.50469e-014
rhumerus 9.94421 68.7974 -83.2624
rradius 141.943
rwrist -11.9979
rhand -37.2859 -73.4364
rfingers 7.12502
rthumb -10.3505 103.162
lclavicle 1.3741e-014 2.50469e-014
lhumerus 0.677875 -69.6582 90.3602
lradius 136.871
lwrist 19.675
lhand -59.4814 -36.375
lfingers 7.12502
lthumb -31.658 -9.10102
rfemur -2.82807 25.3179 26.799
rtibia 3.10682
rfoot -12.6637 -24.2876
rtoes 2.36184
lfemur 4.69021 -42.7201 -9.67301
ltibia -4.30794
lfoot -17.3448 48.8798
ltoes 4.83437
254
root 0.81131 17.5186 8.64272 8.19024 0.77866 -9.38259
lowerback -2.88235 0.974236 7.38468
upperback -5.4843 1.35984 2.36421
thorax -3.97534 0.440369 -1.68331
lowerneck -6.73045 -3.69404 -0.321557
upperneck 45.2319 -7.40447 3.44576
head 18.3262 -2.63955 0.4805
rclavicle -2.0363e-014 -2.96189e-014
rhumerus 13.0896 69.6899 -79.8236
rradius 142.051
rwrist -12.7518
rhand -38.6807 -75.2288
rfingers 7.12502
rthumb -11.6958 104.882
lclavicle -2.0363e-014 -2.96189e-014
lhumerus 0.0137023 -69.9704 90.9769
lradius 136.237
lwrist 20.6067
lhand -58.8892 -47.6076
lfingers 7.12502
lthumb -31.0937 -20.2241
rfemur -2.78804 25.3716 26.804
rtibia 3.07418
rfoot -12.6942 -24.3596
rtoes 2.66874
lfemur 4.69077 -42.7062 -9.68602
ltibia -4.28516
lfoot -17.4888 48.8243
ltoes 5.05298
255
root 0.813295 17.5166 8.64689 8.17242 0.788188 -9.40666
lowerback -3.08925 0.984434 7.45617
upperback -5.33682 1.34264 2.3656
thorax -3.70357 0.440659 -1.71771
lowerneck -6.68553 -3.67655 -0.308948
upperneck 45.3356 -7.37472 3.42199
head 18.3772 -2.6264 0.474024
rclavicle 1.88845e-014 2.24627e-014
rhumerus 13.1497 69.7674 -79.7022
rradius 142.022
rwrist -13.0312
rhand -38.7736 -75.1985
rfingers 7.12502
rthumb -11.7854 104.847
lclavicle 1.88845e-014 2.24627e-014
lhumerus -0.649914 -70.095 91.6796
lradius 136.211
lwrist 20.9251
lhand -58.7746 -48.7501
lfingers 7.12502
lthumb -30.9845 -21.3457
rfemur -2.74497 25.395 26.842
rtibia 3.07483
rfoot -12.7539 -24.3757
rtoes 2.81847
lfemur 4.80901 -42.8503 -9.75051
ltibia -4.30889
lfoot -17.7285 48.9071
ltoes 5.25475
256
root 0.814231 17.5151 8.64944 8.1317 0.780649 -9.46308
lowerback -3.2734 1.06474 7.59522
upperback -5.15785 1.41641 2.29906
thorax -3.40177 0.484419 -1.85955
lowerneck -6.72258 -3.74045 -0.220891
upperneck 45.4673 -7.51598 3.44285
head 18.4765 -2.66062 0.444879
rclavicle 8.53532e-015 -1.21259e-014
rhumerus 10.0183 68.8799 -82.9931
rradius 141.858
rwrist -12.706
rhand -37.6073 -73.363
rfingers 7.12502
rthumb -10.6605 103.073
lclavicle 8.53532e-015 -1.21259e-014
lhumerus -1.11381 -70.2183 92.251
lradius 136.33
lwrist 20.7988
lhand -58.7925 -46.8348
lfingers 7.12502
lthumb -31.0016 -19.4337
rfemur -2.71489 25.3757 26.9218
rtibia 3.11785
rfoot -12.7903 -24.3336
rtoes 2.60001
lfemur 4.95584 -42.9465 -9.77769
ltibia -4.36963
lfoot -17.7472 48.9946
ltoes 5.17311
257
root 0.814458 17.5139 8.64996 8.11748 0.7698 -9.46173
lowerback -3.42043 1.08075 7.61363
upperback -5.02422 1.41344 2.28942
thorax -3.17812 0.492244 -1.87657
lowerneck -6.71248 -3.74675 -0.151022
upperneck 45.6034 -7.5071 3.33813
head 18.55 -2.65488 0.385058
rclavicle -2.49723e-015 3.26007e-014
rhumerus 10.1893 68.7256 -82.8124
rradius 141.861
rwrist -12.736
rhand -37.1941 -73.6485
rfingers 7.12502
rthumb -10.2618 103.378
lclavicle -2.49723e-015 3.26007e-014
lhumerus -1.68652 -70.4529 92.8899
lradius 136.221
lwrist 20.9991
lhand -58.7492 -49.605
lfingers 7.12502
lthumb -30.9603 -22.196
rfemur -2.74415 25.3487 26.9189
rtibia 3.19512
rfoot -12.8194 -24.2969
rtoes 2.51345
lfemur 4.93902 -42.8125 -9.75438
ltibia -4.37124
lfoot -17.6121 48.899
ltoes 4.97237
